<svg width="26" height="26" viewBox="0 0 26 26" fill="none" xmlns="http://www.w3.org/2000/svg">
<path d="M13 0C5.832 0 0 5.8315 0 13C0 20.1685 5.832 26 13 26C20.168 26 26 20.1685 26 13C26 5.8315 20.168 0 13 0ZM13 25C6.3835 25 1 19.6165 1 13C1 6.3835 6.3835 1 13 1C19.6165 1 25 6.3835 25 13C25 19.6165 19.6165 25 13 25Z" fill="#858585"/>
<path d="M17.8536 8.14662C17.6581 7.95112 17.3421 7.95112 17.1466 8.14662L13.0001 12.2931L8.85363 8.14662C8.65813 7.95112 8.34213 7.95112 8.14663 8.14662C7.95112 8.34212 7.95112 8.65813 8.14663 8.85363L12.2931 13.0001L8.14663 17.1466C7.95112 17.3421 7.95112 17.6581 8.14663 17.8536C8.24413 17.9511 8.37213 18.0001 8.50013 18.0001C8.62813 18.0001 8.75613 17.9511 8.85363 17.8536L13.0001 13.7071L17.1466 17.8536C17.2441 17.9511 17.3721 18.0001 17.5001 18.0001C17.6281 18.0001 17.7561 17.9511 17.8536 17.8536C18.0491 17.6581 18.0491 17.3421 17.8536 17.1466L13.7071 13.0001L17.8536 8.85363C18.0491 8.65813 18.0491 8.34212 17.8536 8.14662Z" fill="#858585"/>
</svg>
