<svg width="15" height="16" viewBox="0 0 15 16" fill="none" xmlns="http://www.w3.org/2000/svg">
<path d="M11.217 3.80952C11.217 5.91347 9.55282 7.61905 7.5 7.61905C5.44718 7.61905 3.78303 5.91347 3.78303 3.80952C3.78303 1.70558 5.44718 0 7.5 0C9.55282 0 11.217 1.70558 11.217 3.80952Z" fill="white"/>
<path d="M0 11.8095C1.02598 10.1808 2.54326 8.90774 4.33713 8.21038C5.2533 8.80115 6.33772 9.14286 7.5 9.14286C8.66228 9.14286 9.7467 8.80115 10.6629 8.21038C12.4567 8.90774 13.974 10.1808 15 11.8095C13.4118 14.3309 10.646 16 7.5 16C4.35401 16 1.58824 14.3309 0 11.8095Z" fill="white"/>
</svg>
